REM DIRINDEX 1\3,1\4,1\5,1\6,1\2\7,1\2\8,1\2\9,1\2\10,1\2\11
REM DIRNAME cjc021,folder01,folder02,folder03,folder04,folder05,folder06,folder07,folder08,folder09,folder10
TITLE ""
FILE "DISC5Track09.mp3" MP3
  TRACK 01 AUDIO
    TITLE "0:"
    INDEX 01 00:00:00
  TRACK 02 AUDIO
    TITLE "3:cjc021_5049"
    INDEX 01 00:00:23
  TRACK 03 AUDIO
    TITLE "0:"
    INDEX 01 00:01:30
  TRACK 04 AUDIO
    TITLE "4:cjc021_5050"
    INDEX 01 00:03:08
  TRACK 05 AUDIO
    TITLE "0:"
    INDEX 01 00:04:13
  TRACK 06 AUDIO
    TITLE "5:cjc021_5051"
    INDEX 01 00:04:52
  TRACK 07 AUDIO
    TITLE "0:"
    INDEX 01 00:06:63
  TRACK 08 AUDIO
    TITLE "3:cjc021_5052"
    INDEX 01 00:08:26
  TRACK 09 AUDIO
    TITLE "0:"
    INDEX 01 00:09:34
  TRACK 10 AUDIO
    TITLE "4:cjc021_5053"
    INDEX 01 00:11:15
  TRACK 11 AUDIO
    TITLE "0:"
    INDEX 01 00:12:22
  TRACK 12 AUDIO
    TITLE "5:cjc021_5054"
    INDEX 01 00:12:63
  TRACK 13 AUDIO
    TITLE "0:"
    INDEX 01 00:15:13
  TRACK 14 AUDIO
    TITLE "3:cjc021_5055"
    INDEX 01 00:16:48
  TRACK 15 AUDIO
    TITLE "0:"
    INDEX 01 00:17:49
  TRACK 16 AUDIO
    TITLE "4:cjc021_5056"
    INDEX 01 00:19:26
  TRACK 17 AUDIO
    TITLE "0:"
    INDEX 01 00:20:28
  TRACK 18 AUDIO
    TITLE "5:cjc021_5057"
    INDEX 01 00:20:65
  TRACK 19 AUDIO
    TITLE "0:"
    INDEX 01 00:23:42
  TRACK 20 AUDIO
    TITLE "3:cjc021_5058"
    INDEX 01 00:25:05
  TRACK 21 AUDIO
    TITLE "0:"
    INDEX 01 00:26:13
  TRACK 22 AUDIO
    TITLE "4:cjc021_5059"
    INDEX 01 00:27:63
  TRACK 23 AUDIO
    TITLE "0:"
    INDEX 01 00:28:70
  TRACK 24 AUDIO
    TITLE "5:cjc021_5060"
    INDEX 01 00:29:33
  TRACK 25 AUDIO
    TITLE "0:"
    INDEX 01 00:31:61
  TRACK 26 AUDIO
    TITLE "3:cjc021_5061"
    INDEX 01 00:33:36
  TRACK 27 AUDIO
    TITLE "0:"
    INDEX 01 00:34:36
  TRACK 28 AUDIO
    TITLE "4:cjc021_5062"
    INDEX 01 00:36:15
  TRACK 29 AUDIO
    TITLE "0:"
    INDEX 01 00:37:16
  TRACK 30 AUDIO
    TITLE "5:cjc021_5063"
    INDEX 01 00:37:56
  TRACK 31 AUDIO
    TITLE "0:"
    INDEX 01 00:40:48
  TRACK 32 AUDIO
    TITLE "3:cjc021_5064"
    INDEX 01 00:42:12
  TRACK 33 AUDIO
    TITLE "0:"
    INDEX 01 00:43:25
  TRACK 34 AUDIO
    TITLE "4:cjc021_5065"
    INDEX 01 00:45:02
  TRACK 35 AUDIO
    TITLE "0:"
    INDEX 01 00:46:17
  TRACK 36 AUDIO
    TITLE "5:cjc021_5066"
    INDEX 01 00:46:54
  TRACK 37 AUDIO
    TITLE "0:"
    INDEX 01 00:49:69
  TRACK 38 AUDIO
    TITLE "3:cjc021_5067"
    INDEX 01 00:51:30
  TRACK 39 AUDIO
    TITLE "0:"
    INDEX 01 00:52:53
  TRACK 40 AUDIO
    TITLE "4:cjc021_5068"
    INDEX 01 00:54:27
  TRACK 41 AUDIO
    TITLE "0:"
    INDEX 01 00:55:48
  TRACK 42 AUDIO
    TITLE "5:cjc021_5069"
    INDEX 01 00:56:14
  TRACK 43 AUDIO
    TITLE "0:"
    INDEX 01 01:00:29
  TRACK 44 AUDIO
    TITLE "3:cjc021_5070"
    INDEX 01 01:01:68
  TRACK 45 AUDIO
    TITLE "0:"
    INDEX 01 01:03:04
  TRACK 46 AUDIO
    TITLE "4:cjc021_5071"
    INDEX 01 01:04:60
  TRACK 47 AUDIO
    TITLE "0:"
    INDEX 01 01:05:73
  TRACK 48 AUDIO
    TITLE "5:cjc021_5072"
    INDEX 01 01:06:38
  TRACK 49 AUDIO
    TITLE "0:"
    INDEX 01 01:09:46
  TRACK 50 AUDIO
    TITLE "3:cjc021_5073"
    INDEX 01 01:11:07
  TRACK 51 AUDIO
    TITLE "0:"
    INDEX 01 01:12:19
  TRACK 52 AUDIO
    TITLE "4:cjc021_5074"
    INDEX 01 01:13:71
  TRACK 53 AUDIO
    TITLE "0:"
    INDEX 01 01:15:07
  TRACK 54 AUDIO
    TITLE "5:cjc021_5075"
    INDEX 01 01:15:46
  TRACK 55 AUDIO
    TITLE "0:"
    INDEX 01 01:18:23
  TRACK 56 AUDIO
    TITLE "3:cjc021_5076"
    INDEX 01 01:19:62
  TRACK 57 AUDIO
    TITLE "0:"
    INDEX 01 01:21:04
  TRACK 58 AUDIO
    TITLE "4:cjc021_5077"
    INDEX 01 01:22:56
  TRACK 59 AUDIO
    TITLE "0:"
    INDEX 01 01:24:00
  TRACK 60 AUDIO
    TITLE "5:cjc021_5078"
    INDEX 01 01:24:36
  TRACK 61 AUDIO
    TITLE "0:"
    INDEX 01 01:26:44
